{
    "accessors" : [
        {
            "bufferView" : 0, 
            "componentType" : 5121, 
            "count" : 132, 
            "max" : [
                71
            ], 
            "min" : [
                0
            ], 
            "type" : "SCALAR"
        }, 
        {
            "bufferView" : 1, 
            "componentType" : 5126, 
            "count" : 72, 
            "max" : [
                1.0, 
                0.2486012578010559, 
                1.0
            ], 
            "min" : [
                -1.0, 
                -0.2486012578010559, 
                -1.0
            ], 
            "type" : "VEC3"
        }, 
        {
            "bufferView" : 2, 
            "componentType" : 5126, 
            "count" : 72, 
            "max" : [
                0.9659258723258972, 
                1.0, 
                0.9659258723258972
            ], 
            "min" : [
                -0.9659259915351868, 
                -1.0, 
                -0.9659258127212524
            ], 
            "type" : "VEC3"
        }, 
        {
            "bufferView" : 3, 
            "componentType" : 5126, 
            "count" : 72, 
            "max" : [
                0.9779564738273621, 
                0.9987457394599915
            ], 
            "min" : [
                0.004224270582199097, 
                0.025013387203216553
            ], 
            "type" : "VEC2"
        }
    ], 
    "asset" : {
        "generator" : "Khronos Blender glTF 2.0 exporter", 
        "version" : "2.0"
    }, 
    "bufferViews" : [
        {
            "buffer" : 0, 
            "byteLength" : 132, 
            "byteOffset" : 0, 
            "target" : 34963
        }, 
        {
            "buffer" : 0, 
            "byteLength" : 864, 
            "byteOffset" : 132, 
            "target" : 34962
        }, 
        {
            "buffer" : 0, 
            "byteLength" : 864, 
            "byteOffset" : 996, 
            "target" : 34962
        }, 
        {
            "buffer" : 0, 
            "byteLength" : 576, 
            "byteOffset" : 1860, 
            "target" : 34962
        }
    ], 
    "buffers" : [
        {
            "byteLength" : 2436, 
            "uri" : "data:application/octet-stream;base64,"
        }
    ], 
    "images" : [
        {
            "mimeType" : "image/jpeg", 
            "name" : "btn.png", 
            "uri" : "data:image/jpeg;base64,"
        }
    ], 
    "materials" : [
        {
            "name" : "Material.001", 
            "pbrMetallicRoughness" : {
                "baseColorFactor" : [
                    0.6400000190734865, 
                    0.6400000190734865, 
                    0.6400000190734865, 
                    1.0
                ], 
                "baseColorTexture" : {
                    "index" : 0
                }, 
                "metallicFactor" : 0.0
            }
        }
    ], 
    "meshes" : [
        {
            "name" : "Cylinder", 
            "primitives" : [
                {
                    "attributes" : {
                        "NORMAL" : 2, 
                        "POSITION" : 1, 
                        "TEXCOORD_0" : 3
                    }, 
                    "indices" : 0, 
                    "material" : 0
                }
            ]
        }
    ], 
    "nodes" : [
        {
            "mesh" : 0, 
            "name" : "Cylinder", 
            "scale" : [
                0.5804393887519836, 
                0.5804393887519836, 
                0.5804393887519836
            ]
        }
    ], 
    "samplers" : [
        {}
    ], 
    "scene" : 0, 
    "scenes" : [
        {
            "name" : "Scene", 
            "nodes" : [
                0
            ]
        }
    ], 
    "textures" : [
        {
            "sampler" : 0, 
            "source" : 0
        }
    ]
}
